<?xml version="1.0" encoding="UTF-8" standalone="no"?><!-- Generator: Gravit.io --><svg xmlns="http://www.w3.org/2000/svg" xmlns:xlink="http://www.w3.org/1999/xlink" style="isolation:isolate" viewBox="280 114 755 468" width="755pt" height="468pt"><defs><clipPath id="_clipPath_N558BoKDgEJLYXsiO3RLdbfq17Lq0qct"><rect x="280" y="114" width="755" height="468"/></clipPath></defs><g clip-path="url(#_clipPath_N558BoKDgEJLYXsiO3RLdbfq17Lq0qct)"><path d=" M 280 114 L 1035 114 L 1035 582 L 280 582 L 280 114 Z  M 438.19 365.92 L 438.19 365.92 Q 431.59 365.92 426.34 363.13 L 426.34 363.13 L 426.34 363.13 Q 421.09 360.34 418.09 355.36 L 418.09 355.36 L 418.09 355.36 Q 415.09 350.38 415.09 344.08 L 415.09 344.08 L 415.09 344.08 Q 415.09 337.78 418.09 332.8 L 418.09 332.8 L 418.09 332.8 Q 421.09 327.82 426.34 325.03 L 426.34 325.03 L 426.34 325.03 Q 431.59 322.24 438.19 322.24 L 438.19 322.24 L 438.19 322.24 Q 443.95 322.24 448.57 324.28 L 448.57 324.28 L 448.57 324.28 Q 453.19 326.32 456.25 330.16 L 456.25 330.16 L 448.69 337 L 448.69 337 Q 444.61 332.08 438.79 332.08 L 438.79 332.08 L 438.79 332.08 Q 435.37 332.08 432.7 333.58 L 432.7 333.58 L 432.7 333.58 Q 430.03 335.08 428.56 337.81 L 428.56 337.81 L 428.56 337.81 Q 427.09 340.54 427.09 344.08 L 427.09 344.08 L 427.09 344.08 Q 427.09 347.62 428.56 350.35 L 428.56 350.35 L 428.56 350.35 Q 430.03 353.08 432.7 354.58 L 432.7 354.58 L 432.7 354.58 Q 435.37 356.08 438.79 356.08 L 438.79 356.08 L 438.79 356.08 Q 444.61 356.08 448.69 351.16 L 448.69 351.16 L 456.25 358 L 456.25 358 Q 453.19 361.84 448.57 363.88 L 448.57 363.88 L 448.57 363.88 Q 443.95 365.92 438.19 365.92 L 438.19 365.92 L 438.19 365.92 Z  M 481.81 356.08 L 481.81 356.08 Q 484.99 356.08 487.57 354.58 L 487.57 354.58 L 487.57 354.58 Q 490.15 353.08 491.65 350.35 L 491.65 350.35 L 491.65 350.35 Q 493.15 347.62 493.15 344.08 L 493.15 344.08 L 493.15 344.08 Q 493.15 340.54 491.65 337.81 L 491.65 337.81 L 491.65 337.81 Q 490.15 335.08 487.57 333.58 L 487.57 333.58 L 487.57 333.58 Q 484.99 332.08 481.81 332.08 L 481.81 332.08 L 481.81 332.08 Q 478.63 332.08 476.05 333.58 L 476.05 333.58 L 476.05 333.58 Q 473.47 335.08 471.97 337.81 L 471.97 337.81 L 471.97 337.81 Q 470.47 340.54 470.47 344.08 L 470.47 344.08 L 470.47 344.08 Q 470.47 347.62 471.97 350.35 L 471.97 350.35 L 471.97 350.35 Q 473.47 353.08 476.05 354.58 L 476.05 354.58 L 476.05 354.58 Q 478.63 356.08 481.81 356.08 L 481.81 356.08 L 481.81 356.08 Z  M 523.27 355.6 L 530.77 355.6 L 530.77 355.6 Q 536.17 355.6 539.44 352.54 L 539.44 352.54 L 539.44 352.54 Q 542.71 349.48 542.71 344.08 L 542.71 344.08 L 542.71 344.08 Q 542.71 338.68 539.44 335.62 L 539.44 335.62 L 539.44 335.62 Q 536.17 332.56 530.77 332.56 L 530.77 332.56 L 523.27 332.56 L 523.27 355.6 L 523.27 355.6 Z  M 572.71 355.9 L 594.67 355.9 L 594.67 365.08 L 560.95 365.08 L 560.95 323.08 L 593.89 323.08 L 593.89 332.26 L 572.71 332.26 L 572.71 339.34 L 591.37 339.34 L 591.37 348.22 L 572.71 348.22 L 572.71 355.9 L 572.71 355.9 Z  M 631.51 323.08 L 643.27 323.08 L 625.27 365.08 L 613.57 365.08 L 595.63 323.08 L 608.47 323.08 L 619.87 350.44 L 631.51 323.08 L 631.51 323.08 Z  M 657.49 355.9 L 679.45 355.9 L 679.45 365.08 L 645.73 365.08 L 645.73 323.08 L 678.67 323.08 L 678.67 332.26 L 657.49 332.26 L 657.49 339.34 L 676.15 339.34 L 676.15 348.22 L 657.49 348.22 L 657.49 355.9 L 657.49 355.9 Z  M 714.37 323.08 L 726.01 323.08 L 726.01 365.08 L 716.23 365.08 L 697.69 342.7 L 697.69 365.08 L 686.05 365.08 L 686.05 323.08 L 695.83 323.08 L 714.37 345.46 L 714.37 323.08 L 714.37 323.08 Z  M 762.55 354.7 L 762.55 343.18 L 773.05 343.18 L 773.05 360.58 L 773.05 360.58 Q 769.45 363.16 764.77 364.54 L 764.77 364.54 L 764.77 364.54 Q 760.09 365.92 755.41 365.92 L 755.41 365.92 L 755.41 365.92 Q 748.81 365.92 743.53 363.13 L 743.53 363.13 L 743.53 363.13 Q 738.25 360.34 735.25 355.36 L 735.25 355.36 L 735.25 355.36 Q 732.25 350.38 732.25 344.08 L 732.25 344.08 L 732.25 344.08 Q 732.25 337.78 735.25 332.8 L 735.25 332.8 L 735.25 332.8 Q 738.25 327.82 743.59 325.03 L 743.59 325.03 L 743.59 325.03 Q 748.93 322.24 755.65 322.24 L 755.65 322.24 L 755.65 322.24 Q 761.53 322.24 766.21 324.22 L 766.21 324.22 L 766.21 324.22 Q 770.89 326.2 774.01 329.92 L 774.01 329.92 L 766.45 336.76 L 766.45 336.76 Q 762.19 332.08 756.25 332.08 L 756.25 332.08 L 756.25 332.08 Q 750.85 332.08 747.55 335.35 L 747.55 335.35 L 747.55 335.35 Q 744.25 338.62 744.25 344.08 L 744.25 344.08 L 744.25 344.08 Q 744.25 347.56 745.75 350.29 L 745.75 350.29 L 745.75 350.29 Q 747.25 353.02 749.95 354.55 L 749.95 354.55 L 749.95 354.55 Q 752.65 356.08 756.13 356.08 L 756.13 356.08 L 756.13 356.08 Q 759.55 356.08 762.55 354.7 L 762.55 354.7 L 762.55 354.7 Z  M 792.37 355.9 L 814.33 355.9 L 814.33 365.08 L 780.61 365.08 L 780.61 323.08 L 813.55 323.08 L 813.55 332.26 L 792.37 332.26 L 792.37 339.34 L 811.03 339.34 L 811.03 348.22 L 792.37 348.22 L 792.37 355.9 L 792.37 355.9 Z  M 846.79 338.62 L 846.79 338.62 Q 846.79 335.68 844.93 334.06 L 844.93 334.06 L 844.93 334.06 Q 843.07 332.44 839.41 332.44 L 839.41 332.44 L 832.81 332.44 L 832.81 344.74 L 839.41 344.74 L 839.41 344.74 Q 843.07 344.74 844.93 343.15 L 844.93 343.15 L 844.93 343.15 Q 846.79 341.56 846.79 338.62 L 846.79 338.62 L 846.79 338.62 Z  M 880.09 365.92 L 880.09 365.92 Q 874.99 365.92 870.19 364.66 L 870.19 364.66 L 870.19 364.66 Q 865.39 363.4 862.39 361.3 L 862.39 361.3 L 866.29 352.54 L 866.29 352.54 Q 869.11 354.4 872.83 355.54 L 872.83 355.54 L 872.83 355.54 Q 876.55 356.68 880.15 356.68 L 880.15 356.68 L 880.15 356.68 Q 886.99 356.68 886.99 353.26 L 886.99 353.26 L 886.99 353.26 Q 886.99 351.46 885.04 350.59 L 885.04 350.59 L 885.04 350.59 Q 883.09 349.72 878.77 348.76 L 878.77 348.76 L 878.77 348.76 Q 874.03 347.74 870.85 346.57 L 870.85 346.57 L 870.85 346.57 Q 867.67 345.4 865.39 342.82 L 865.39 342.82 L 865.39 342.82 Q 863.11 340.24 863.11 335.86 L 863.11 335.86 L 863.11 335.86 Q 863.11 332.02 865.21 328.93 L 865.21 328.93 L 865.21 328.93 Q 867.31 325.84 871.48 324.04 L 871.48 324.04 L 871.48 324.04 Q 875.65 322.24 881.71 322.24 L 881.71 322.24 L 881.71 322.24 Q 885.85 322.24 889.87 323.17 L 889.87 323.17 L 889.87 323.17 Q 893.89 324.1 896.95 325.9 L 896.95 325.9 L 893.29 334.72 L 893.29 334.72 Q 887.29 331.48 881.65 331.48 L 881.65 331.48 L 881.65 331.48 Q 878.11 331.48 876.49 332.53 L 876.49 332.53 L 876.49 332.53 Q 874.87 333.58 874.87 335.26 L 874.87 335.26 L 874.87 335.26 Q 874.87 336.94 876.79 337.78 L 876.79 337.78 L 876.79 337.78 Q 878.71 338.62 882.97 339.52 L 882.97 339.52 L 882.97 339.52 Q 887.77 340.54 890.92 341.71 L 890.92 341.71 L 890.92 341.71 Q 894.07 342.88 896.38 345.43 L 896.38 345.43 L 896.38 345.43 Q 898.69 347.98 898.69 352.36 L 898.69 352.36 L 898.69 352.36 Q 898.69 356.14 896.59 359.2 L 896.59 359.2 L 896.59 359.2 Q 894.49 362.26 890.29 364.09 L 890.29 364.09 L 890.29 364.09 Q 886.09 365.92 880.09 365.92 L 880.09 365.92 L 880.09 365.92 Z  M 481.81 365.92 L 481.81 365.92 Q 475.15 365.92 469.84 363.1 L 469.84 363.1 L 469.84 363.1 Q 464.53 360.28 461.5 355.3 L 461.5 355.3 L 461.5 355.3 Q 458.47 350.32 458.47 344.08 L 458.47 344.08 L 458.47 344.08 Q 458.47 337.84 461.5 332.86 L 461.5 332.86 L 461.5 332.86 Q 464.53 327.88 469.84 325.06 L 469.84 325.06 L 469.84 325.06 Q 475.15 322.24 481.81 322.24 L 481.81 322.24 L 481.81 322.24 Q 488.47 322.24 493.78 325.06 L 493.78 325.06 L 493.78 325.06 Q 499.09 327.88 502.12 332.86 L 502.12 332.86 L 502.12 332.86 Q 505.15 337.84 505.15 344.08 L 505.15 344.08 L 505.15 344.08 Q 505.15 350.32 502.12 355.3 L 502.12 355.3 L 502.12 355.3 Q 499.09 360.28 493.78 363.1 L 493.78 363.1 L 493.78 363.1 Q 488.47 365.92 481.81 365.92 L 481.81 365.92 L 481.81 365.92 Z  M 511.39 365.08 L 511.39 323.08 L 531.25 323.08 L 531.25 323.08 Q 538.15 323.08 543.49 325.66 L 543.49 325.66 L 543.49 325.66 Q 548.83 328.24 551.77 332.98 L 551.77 332.98 L 551.77 332.98 Q 554.71 337.72 554.71 344.08 L 554.71 344.08 L 554.71 344.08 Q 554.71 350.44 551.77 355.18 L 551.77 355.18 L 551.77 355.18 Q 548.83 359.92 543.49 362.5 L 543.49 362.5 L 543.49 362.5 Q 538.15 365.08 531.25 365.08 L 531.25 365.08 L 511.39 365.08 L 511.39 365.08 Z  M 846.91 365.08 L 839.29 353.92 L 832.81 353.92 L 832.81 365.08 L 820.93 365.08 L 820.93 323.08 L 840.13 323.08 L 840.13 323.08 Q 845.83 323.08 850.03 324.97 L 850.03 324.97 L 850.03 324.97 Q 854.23 326.86 856.51 330.37 L 856.51 330.37 L 856.51 330.37 Q 858.79 333.88 858.79 338.62 L 858.79 338.62 L 858.79 338.62 Q 858.79 343.18 856.66 346.57 L 856.66 346.57 L 856.66 346.57 Q 854.53 349.96 850.57 351.88 L 850.57 351.88 L 859.63 365.08 L 846.91 365.08 L 846.91 365.08 Z " fill-rule="evenodd" fill="rgb(255,255,255)"/></g></svg>